<?xml version="1.0" standalone="no"?><!DOCTYPE svg PUBLIC "-//W3C//DTD SVG 1.1//EN" "http://www.w3.org/Graphics/SVG/1.1/DTD/svg11.dtd"><svg t="1760603344988" class="icon" viewBox="0 0 1024 1024" version="1.1" xmlns="http://www.w3.org/2000/svg" p-id="39630" xmlns:xlink="http://www.w3.org/1999/xlink" width="24" height="24"><path d="M184.32 163.84h655.36a122.88 122.88 0 0 1 122.88 122.88v450.56a122.88 122.88 0 0 1-122.88 122.88H184.32a122.88 122.88 0 0 1-122.88-122.88V286.72a122.88 122.88 0 0 1 122.88-122.88z" fill="#999999" p-id="39631"></path><path d="M860.16 235.52l-696.32 0.24576c-32.07168 0-42.68032 42.94656-14.336 57.87648l349.2864 184.09472a30.72 30.72 0 0 0 28.73344-0.04096l347.05408-184.32c28.2624-15.01184 17.59232-57.87648-14.4384-57.856z" fill="#FFFFFF" p-id="39632"></path></svg>